<svg width="749" height="133" viewBox="0 0 749 133" fill="none" xmlns="http://www.w3.org/2000/svg">
<path d="M739.057 109.203C736.533 109.203 734.381 108.35 732.6 106.643C730.819 104.862 729.929 102.635 729.929 99.9639C729.929 97.1439 730.819 94.9176 732.6 93.285C734.381 91.5781 736.533 90.7247 739.057 90.7247C741.58 90.7247 743.732 91.5781 745.513 93.285C747.294 94.9176 748.184 97.1439 748.184 99.9639C748.184 102.635 747.294 104.862 745.513 106.643C743.732 108.35 741.58 109.203 739.057 109.203Z" fill="white"/>
<path d="M690.552 109.203C684.467 109.203 679.049 107.904 674.3 105.307C669.55 102.635 665.803 98.9991 663.057 94.3981C660.311 89.7971 658.938 84.5653 658.938 78.7027C658.938 72.7658 660.311 67.534 663.057 63.0072C665.803 58.4062 669.55 54.807 674.3 52.2096C679.049 49.6123 684.467 48.3136 690.552 48.3136C696.711 48.3136 702.166 49.6123 706.915 52.2096C711.739 54.807 715.486 58.3691 718.158 62.8959C720.904 67.4227 722.277 72.6916 722.277 78.7027C722.277 84.5653 720.904 89.7971 718.158 94.3981C715.486 98.9991 711.739 102.635 706.915 105.307C702.166 107.904 696.711 109.203 690.552 109.203ZM690.552 97.2923C693.965 97.2923 697.008 96.5502 699.68 95.066C702.351 93.5818 704.429 91.4297 705.913 88.6097C707.472 85.7897 708.251 82.4874 708.251 78.7027C708.251 74.8437 707.472 71.5414 705.913 68.7956C704.429 65.9756 702.351 63.8235 699.68 62.3393C697.008 60.8551 694.003 60.113 690.663 60.113C687.249 60.113 684.207 60.8551 681.535 62.3393C678.938 63.8235 676.86 65.9756 675.302 68.7956C673.743 71.5414 672.964 74.8437 672.964 78.7027C672.964 82.4874 673.743 85.7897 675.302 88.6097C676.86 91.4297 678.938 93.5818 681.535 95.066C684.207 96.5502 687.212 97.2923 690.552 97.2923Z" fill="white"/>
<path d="M622.643 109.537C616.707 109.537 611.178 108.572 606.057 106.643C601.011 104.639 596.596 101.856 592.811 98.2941C589.1 94.6578 586.206 90.3908 584.128 85.4929C582.05 80.595 581.011 75.2519 581.011 69.4635C581.011 63.6751 582.05 58.332 584.128 53.4341C586.206 48.5362 589.138 44.3063 592.922 40.7442C596.707 37.1079 601.122 34.325 606.169 32.3955C611.215 30.3919 616.744 29.39 622.755 29.39C629.137 29.39 634.962 30.5032 640.231 32.7295C645.5 34.8816 649.953 38.1097 653.589 42.4139L644.239 51.2078C641.419 48.1652 638.265 45.9018 634.777 44.4176C631.289 42.8592 627.504 42.0799 623.423 42.0799C619.341 42.0799 615.593 42.7478 612.18 44.0836C608.84 45.4194 605.909 47.3118 603.386 49.7607C600.937 52.2096 599.007 55.1038 597.597 58.4433C596.262 61.7827 595.594 65.4561 595.594 69.4635C595.594 73.4708 596.262 77.1442 597.597 80.4837C599.007 83.8232 600.937 86.7174 603.386 89.1663C605.909 91.6152 608.84 93.5076 612.18 94.8434C615.593 96.1792 619.341 96.847 623.423 96.847C627.504 96.847 631.289 96.1049 634.777 94.6207C638.265 93.0623 641.419 90.7247 644.239 87.6079L653.589 96.5131C649.953 100.743 645.5 103.971 640.231 106.198C634.962 108.424 629.1 109.537 622.643 109.537Z" fill="white"/>
<path d="M494.599 62.8959H533.336V74.8066H494.599V62.8959ZM495.712 96.2905H539.681V108.424H481.241V30.5032H538.123V42.6365H495.712V96.2905Z" fill="white"/>
<path d="M414.604 108.424V30.5032H429.075V96.1792H469.816V108.424H414.604Z" fill="white"/>
<path d="M379.057 108.424V30.5032H393.528V108.424H379.057Z" fill="white"/>
<path d="M272.742 108.424V30.5032H284.653L318.715 87.3852H312.482L345.988 30.5032H357.898L358.01 108.424H344.318L344.207 51.987H347.101L318.604 99.5186H312.148L283.206 51.987H286.545V108.424H272.742Z" fill="white"/>
<path d="M226.891 109.537C220.806 109.537 214.98 108.684 209.414 106.977C203.849 105.196 199.433 102.932 196.168 100.187L201.177 88.9437C204.294 91.3926 208.153 93.4334 212.754 95.066C217.355 96.6986 222.067 97.5149 226.891 97.5149C230.972 97.5149 234.275 97.0697 236.798 96.1791C239.321 95.2886 241.176 94.1013 242.364 92.6171C243.551 91.0587 244.145 89.3147 244.145 87.3852C244.145 85.0105 243.291 83.1182 241.584 81.7082C239.878 80.224 237.651 79.0737 234.906 78.2574C232.234 77.3669 229.228 76.5506 225.889 75.8085C222.624 75.0664 219.321 74.2129 215.982 73.2482C212.717 72.2093 209.711 70.9106 206.965 69.3522C204.294 67.7196 202.105 65.5675 200.398 62.8959C198.691 60.2243 197.838 56.8107 197.838 52.6549C197.838 48.4249 198.951 44.566 201.177 41.0781C203.478 37.516 206.928 34.696 211.529 32.6182C216.205 30.4661 222.104 29.39 229.228 29.39C233.904 29.39 238.542 29.9837 243.143 31.1711C247.744 32.3584 251.751 34.0653 255.165 36.2916L250.601 47.5344C247.113 45.4565 243.514 43.9352 239.803 42.9705C236.093 41.9315 232.531 41.4121 229.117 41.4121C225.11 41.4121 221.845 41.8944 219.321 42.8592C216.872 43.8239 215.054 45.0855 213.867 46.6439C212.754 48.2023 212.197 49.9833 212.197 51.987C212.197 54.3617 213.014 56.2912 214.646 57.7754C216.353 59.1854 218.542 60.2985 221.214 61.1149C223.96 61.9312 227.002 62.7475 230.342 63.5638C233.681 64.3059 236.983 65.1593 240.249 66.124C243.588 67.0888 246.594 68.3503 249.265 69.9088C252.011 71.4672 254.2 73.5822 255.833 76.2537C257.54 78.9253 258.393 82.3018 258.393 86.3834C258.393 90.5392 257.243 94.3981 254.942 97.9602C252.716 101.448 249.265 104.268 244.59 106.42C239.915 108.498 234.015 109.537 226.891 109.537Z" fill="white"/>
<path d="M121.435 66.5C121.435 36.1604 96.8396 11.5652 66.5 11.5652C36.1604 11.5652 11.5652 36.1604 11.5652 66.5C11.5652 96.8396 36.1604 121.435 66.5 121.435V133C29.7731 133 0 103.227 0 66.5C0 29.7731 29.7731 0 66.5 0C103.227 0 133 29.7731 133 66.5C133 103.227 103.227 133 66.5 133V121.435C96.8396 121.435 121.435 96.8396 121.435 66.5Z" fill="white"/>
<path d="M87.2873 80.854C88.926 78.0718 92.4678 77.1696 95.1991 78.8388C97.9303 80.5081 98.816 84.1159 97.1774 86.8981C89.7381 99.5281 78.0119 106.111 66.1358 105.999C54.6198 105.889 43.6879 99.4765 37.2541 87.7285L36.6458 86.5754L36.5163 86.3029C35.2535 83.4736 36.3778 80.1022 39.1183 78.6581C41.859 77.214 45.2112 78.2267 46.7485 80.9113L46.8907 81.1767L47.3187 81.9899C51.8338 90.2498 59.0769 94.1805 66.2428 94.2488C73.6509 94.3194 81.7502 90.2544 87.2873 80.854Z" fill="white"/>
</svg>
